#N canvas 429 221 725 490 12;
#X obj 399 225 osc~ 400;
#X obj 399 248 *~ 0.3;
#X obj 397 298 dac~;
#X msg 499 60 \; pd dsp 1;
#X obj 494 35 loadbang;
#X obj 401 148 random 30;
#X obj 401 171 + 40;
#X obj 401 194 mtof;
#X obj 399 112 metro 100;
#X obj 242 64 bng 15 250 50 0 empty empty empty 17 7 0 10 -262144 -1
-1;
#X connect 0 0 1 0;
#X connect 1 0 2 0;
#X connect 1 0 2 1;
#X connect 4 0 3 0;
#X connect 5 0 6 0;
#X connect 6 0 7 0;
#X connect 7 0 0 0;
#X connect 8 0 5 0;
#X connect 9 0 8 0;
