#N canvas 429 221 725 490 12;
#X obj 262 181 osc~ 400;
#X obj 262 204 *~ 0.3;
#X obj 255 269 dac~;
#X msg 374 444 \; pd dsp 1;
#X obj 369 419 loadbang;
#X connect 0 0 1 0;
#X connect 1 0 2 0;
#X connect 1 0 2 1;
#X connect 4 0 3 0;
